<svg width="1920" height="1080" viewBox="0 0 1920 1080" fill="none" xmlns="http://www.w3.org/2000/svg" xmlns:xlink="http://www.w3.org/1999/xlink">
<g id="Frame" clip-path="url(#clip0_668_373)">
<rect width="1920" height="1080" fill="#F3F3F3"/>
<g id="Decorative">
<path d="M1874 1310.97C1874 1695.35 1766.7 1873.5 1627 1910.96L1627 1347.97L1194 1347.97C1212.59 865.55 1431.6 163.991 1156 -463C1382.45 -185.041 1874 560.48 1874 1310.97Z" fill="#FF542D"/>
<path d="M1189 2163.95C1189 2367.43 1276.88 2444.29 1381 2441.95L1381 2177.95L1604 2177.95C1591.61 1957 1454.58 1637.96 1622 1351.97C1483.82 1479.33 1189 1820.08 1189 2163.95Z" fill="#FF542D"/>
</g>
<g id="iPhone 15 Pro - White Flatten">
<g id="Apple iPhone 15 Pro Black Titanium 1">
<rect x="1103" y="109" width="401" height="824" fill="url(#pattern0_668_373)"/>
<rect x="1103" y="109" width="401" height="824" fill="url(#pattern1_668_373)"/>
</g>
<g id="Image">
<path fill-rule="evenodd" clip-rule="evenodd" d="M1125.02 151.016C1119.44 161.966 1120.02 176.346 1120.02 205.014V834.986C1120.02 863.654 1119.44 878.034 1125.02 888.984C1129.92 898.616 1137.39 906.076 1147.02 910.983C1157.95 916.562 1172.38 915.983 1201.01 915.983H1403C1431.64 915.983 1446.06 916.562 1457 910.983C1466.62 906.076 1474.1 898.616 1479 888.984C1484.57 878.034 1485 863.654 1485 834.986V205.014C1485 176.346 1484.57 161.966 1479 151.016C1474.1 141.384 1466.62 133.924 1457 129.017C1446.06 123.438 1431.64 124.017 1403 124.017H1201.01C1172.38 124.017 1157.95 123.438 1147.02 129.017C1137.39 133.924 1129.92 141.384 1125.02 151.016ZM1261.01 134.017C1251.6 134.017 1244.01 141.593 1244.01 151.016C1244.01 160.439 1251.6 168.015 1261.01 168.015H1343.01C1352.42 168.015 1360.01 160.439 1360.01 151.016C1360.01 141.593 1352.42 134.017 1343.01 134.017H1261.01Z" fill="url(#pattern2_668_373)"/>
</g>
</g>




</g>
<defs>



<clipPath id="clip0_668_373">
<rect width="1920" height="1080" fill="white"/>
</clipPath>



</defs>
</svg>