<svg width="1920" height="1080" viewBox="0 0 1920 1080" fill="none" xmlns="http://www.w3.org/2000/svg" xmlns:xlink="http://www.w3.org/1999/xlink">
<g id="Frame" clip-path="url(#clip0_668_382)">
<rect width="1920" height="1080" fill="#F3F3F3"/>
<g id="Decorative">
<path d="M804.999 1434C642.506 827.388 59.9999 783.714 60 285C60 78.9361 225.997 -88 431.999 -88C638.001 -88 804.999 78.9361 804.999 285C804.999 491.064 805.001 996.24 804.999 1434Z" fill="#5FA0FB"/>
</g>
<g id="iPhone 15 Pro - White Flatten">
<g id="Apple iPhone 15 Pro Black Titanium 1">
<rect x="124" y="109" width="401" height="824" fill="url(#pattern0_668_382)"/>
<rect x="124" y="109" width="401" height="824" fill="url(#pattern1_668_382)"/>
</g>
<g id="Image">
<path fill-rule="evenodd" clip-rule="evenodd" d="M146.016 151.016C140.444 161.966 141.017 176.346 141.017 205.014V834.986C141.017 863.654 140.444 878.034 146.016 888.984C150.918 898.616 158.395 906.076 168.015 910.983C178.953 916.562 193.378 915.983 222.013 915.983H424.004C452.639 915.983 467.064 916.562 478.001 910.983C487.622 906.076 495.098 898.616 500 888.984C505.573 878.034 506 863.654 506 834.986V205.014C506 176.346 505.573 161.966 500 151.016C495.098 141.384 487.622 133.924 478.001 129.017C467.064 123.438 452.639 124.017 424.004 124.017H222.013C193.378 124.017 178.953 123.438 168.015 129.017C158.395 133.924 150.918 141.384 146.016 151.016ZM282.01 134.017C272.598 134.017 265.011 141.593 265.011 151.016C265.011 160.439 272.597 168.015 282.01 168.015H364.006C373.419 168.015 381.006 160.439 381.006 151.016C381.006 141.593 373.419 134.017 364.006 134.017H282.01Z" fill="url(#pattern2_668_382)"/>
</g>
</g>
<g id="iPhone 15 Pro - White Flatten_2">
<g id="Apple iPhone 15 Pro Black Titanium 1_2">
<rect x="604" y="109" width="401" height="824" fill="url(#pattern3_668_382)"/>
<rect x="604" y="109" width="401" height="824" fill="url(#pattern4_668_382)"/>
</g>
<g id="Image_2">
<path fill-rule="evenodd" clip-rule="evenodd" d="M626.016 151.016C620.444 161.966 621.017 176.346 621.017 205.014V834.986C621.017 863.654 620.444 878.034 626.016 888.984C630.918 898.616 638.395 906.076 648.015 910.983C658.953 916.562 673.378 915.983 702.013 915.983H904.004C932.639 915.983 947.064 916.562 958.001 910.983C967.622 906.076 975.098 898.616 980 888.984C985.573 878.034 986 863.654 986 834.986V205.014C986 176.346 985.573 161.966 980 151.016C975.098 141.384 967.622 133.924 958.001 129.017C947.064 123.438 932.639 124.017 904.004 124.017H702.013C673.378 124.017 658.953 123.438 648.015 129.017C638.395 133.924 630.918 141.384 626.016 151.016ZM762.01 134.017C752.598 134.017 745.011 141.593 745.011 151.016C745.011 160.439 752.597 168.015 762.01 168.015H844.006C853.419 168.015 861.006 160.439 861.006 151.016C861.006 141.593 853.419 134.017 844.006 134.017H762.01Z" fill="url(#pattern5_668_382)"/>
</g>
</g>




</g>
<defs>






<clipPath id="clip0_668_382">
<rect width="1920" height="1080" fill="white"/>
</clipPath>



</defs>
</svg>