<svg width="1920" height="1080" viewBox="0 0 1920 1080" fill="none" xmlns="http://www.w3.org/2000/svg">
<g id="Frame" clip-path="url(#clip0_668_123)">
<rect width="1920" height="1080" fill="#F3F3F3"/>
<g id="Decorative">
<path d="M1808 -128C2095.46 -128 2276 1.35953 2276 293C2276 484.547 2116.23 575.814 1921 628V289H1450V709C1197.08 750.14 921.969 827.94 712 1108C757.475 696 1057.67 -128 1808 -128Z" fill="#237267"/>
<path d="M1922 521C1922 648.832 1815.59 752 1685 752C1554.41 752 1449 648.832 1449 521C1449 393.168 1554.41 289 1685 289C1815.59 289 1922 393.168 1922 521Z" fill="#237267"/>
</g>




</g>
<defs>
<clipPath id="clip0_668_123">
<rect width="1920" height="1080" fill="white"/>
</clipPath>
</defs>
</svg>