<svg width="1920" height="1080" viewBox="0 0 1920 1080" fill="none" xmlns="http://www.w3.org/2000/svg" xmlns:xlink="http://www.w3.org/1999/xlink">
<g id="Frame" clip-path="url(#clip0_668_311)">
<rect width="1920" height="1080" fill="#F3F3F3"/>
<g id="Decorative">
<path d="M-464 939.999C142.612 777.506 186.286 195 685 195C891.064 195 1058 360.997 1058 566.999C1058 773.001 891.064 939.999 685 939.999C478.936 939.999 -26.2403 940.002 -464 939.999Z" fill="#FF542D"/>
</g>
<g id="Macbook Air M2 Silver Flatten">
<rect id="Macbook Air M2 Silver 1" x="-28" y="238" width="1085" height="658" fill="url(#pattern0_668_311)"/>
<g id="Image">
<path d="M93 260C86.6432 260 82 264.644 82 271V823H948V271C948 264.644 943.357 260 937 260H570C568.504 260 568 260.505 568 262V272C568 275.365 565.365 278 562 278H468C464.635 278 462 275.365 462 272V262C462 260.505 460.496 260 459 260H93Z" fill="url(#pattern1_668_311)"/>
</g>
</g>





</g>
<defs>


<clipPath id="clip0_668_311">
<rect width="1920" height="1080" fill="white"/>
</clipPath>


</defs>
</svg>