<svg width="1920" height="1080" viewBox="0 0 1920 1080" fill="none" xmlns="http://www.w3.org/2000/svg">
<g id="Frame" clip-path="url(#clip0_668_253)">
<rect width="1920" height="1080" fill="#F3F3F3"/>

<circle id="Vector" cx="1161.5" cy="350.5" r="31.5" fill="#FF542D"/>

<circle id="Vector_2" cx="1161.5" cy="507.5" r="31.5" fill="#D2B7E9"/>

<circle id="Vector_3" cx="1161.5" cy="664.5" r="31.5" fill="#5FA0FB"/>

<g id="Diagram">
<ellipse id="Diagram_2" cx="410.5" cy="534" rx="290.5" ry="291" fill="#FF542D" stroke="#F3F3F3" stroke-width="4"/>
<ellipse id="Diagram_3" cx="703.5" cy="534" rx="290.5" ry="291" fill="#D2B7E9" stroke="#F3F3F3" stroke-width="4"/>
<g id="Diagram_4">
<path fill-rule="evenodd" clip-rule="evenodd" d="M557.5 785.047C643.365 734.487 701 640.986 701 534C701 427.014 643.365 333.513 557.5 282.953C471.635 333.513 414 427.014 414 534C414 640.986 471.635 734.487 557.5 785.047Z" fill="#5FA0FB"/>
<path d="M557.5 785.047L556.485 786.771L557.5 787.368L558.515 786.771L557.5 785.047ZM557.5 282.953L558.515 281.229L557.5 280.632L556.485 281.229L557.5 282.953ZM701 534H699C699 640.25 641.764 733.109 556.485 783.324L557.5 785.047L558.515 786.771C644.966 735.865 703 641.722 703 534H701ZM557.5 282.953L556.485 284.676C641.764 334.891 699 427.75 699 534H701H703C703 426.278 644.966 332.135 558.515 281.229L557.5 282.953ZM414 534H416C416 427.75 473.236 334.891 558.515 284.676L557.5 282.953L556.485 281.229C470.034 332.135 412 426.278 412 534H414ZM557.5 785.047L558.515 783.324C473.236 733.109 416 640.25 416 534H414H412C412 641.722 470.034 735.865 556.485 786.771L557.5 785.047Z" fill="#F3F3F3"/>
</g>
</g>



<g id="Decorative">
<path d="M1982 652C1894 323.584 1579 300 1579 30C1579 -81.5615 1669.44 -172 1781 -172C1892.56 -172 1982 -81.5615 1982 30C1982 141.562 1982 415 1982 652Z" fill="#D2B7E9"/>
</g>


</g>
<defs>
<clipPath id="clip0_668_253">
<rect width="1920" height="1080" fill="white"/>
</clipPath>
</defs>
</svg>