<svg width="1920" height="1080" viewBox="0 0 1920 1080" fill="none" xmlns="http://www.w3.org/2000/svg" xmlns:xlink="http://www.w3.org/1999/xlink">
<g id="Frame" clip-path="url(#clip0_668_408)">
<rect width="1920" height="1080" fill="#237267"/>
<g id="Decorative">
<path d="M2591 530.145C2789.92 530.145 2952 662.189 2952 825.073C2952 987.957 2789.92 1120 2591 1120C2176.46 1120 2087.53 777.202 1697 600.128C1774.25 654.221 1824 735.316 1824 825.073C1824 987.957 1662.92 1120 1464 1120C1265.08 1120 777.575 1119 355 1119C940.571 990.519 982.585 530.145 1464 530.145C1471.04 530.145 1478.06 529.819 1485 530.145C1484.26 529.982 1482.74 530.308 1482 530.145C1904.58 530.143 2392.08 530.145 2591 530.145Z" fill="#F3F3F3"/>
</g>
<g id="Macbook Air M2 Silver Flatten">
<rect id="Macbook Air M2 Silver 1" x="811" y="93" width="1445" height="876" fill="url(#pattern0_668_408)"/>
<g id="Image">
<path d="M972 122C963.538 122 957 128.538 957 137V871H2110V137C2110 128.538 2103.46 122 2095 122H1607C1605.01 122 1604 123.009 1604 125V139C1604 143.48 1600.48 147 1596 147H1471C1466.52 147 1463 143.48 1463 139V125C1463 123.009 1460.99 122 1459 122H972Z" fill="url(#pattern1_668_408)"/>
</g>
</g>




</g>
<defs>


<clipPath id="clip0_668_408">
<rect width="1920" height="1080" fill="white"/>
</clipPath>


</defs>
</svg>