<svg width="1920" height="1080" viewBox="0 0 1920 1080" fill="none" xmlns="http://www.w3.org/2000/svg" xmlns:xlink="http://www.w3.org/1999/xlink">
<g id="Frame" clip-path="url(#clip0_668_394)">
<rect width="1920" height="1080" fill="#F3F3F3"/>
<g id="Decorative">
<path d="M-195 1080C-401.064 1080 -569 913.002 -569 707C-569 500.998 -401.064 334 -195 334C175.723 334 294.051 656.753 580 889C865.949 656.753 985.277 334 1356 334C1562.06 334 1729 500.998 1729 707C1729 913.002 1562.06 1080 1356 1080C1207.25 1080 902.577 1080 580 1080C257.423 1080 -46.2486 1080 -195 1080Z" fill="#5FA0FB"/>
</g>

<g id="iPhone 15 Pro - White Flatten">
<g id="Apple iPhone 15 Pro Black Titanium 1">
<rect x="390" y="250" width="332" height="683" fill="url(#pattern0_668_394)"/>
<rect x="390" y="250" width="332" height="683" fill="url(#pattern1_668_394)"/>
</g>
<g id="Decorative_2">
<path fill-rule="evenodd" clip-rule="evenodd" d="M408.027 285.027C403.413 294.103 404.027 305.263 404.027 329.025V851.003C404.027 874.765 403.413 886.925 408.027 896.001C412.085 903.984 419.06 909.932 427.025 914C436.08 918.625 447.314 919 471.021 919H638.006C661.713 919 673.947 918.625 683.002 914C690.967 909.932 696.942 903.984 701 896.001C705.614 886.925 706 874.765 706 851.003V329.025C706 305.263 705.614 294.103 701 285.027C696.942 277.044 690.967 270.096 683.002 266.028C673.947 261.404 661.713 262.028 638.006 262.028H471.021C447.314 262.028 436.08 261.404 427.025 266.028C419.06 270.096 412.085 277.044 408.027 285.027ZM521.017 270.028C513.224 270.028 507.018 276.216 507.018 284.027C507.018 291.838 513.224 299.027 521.017 299.027H589.011C596.803 299.027 603.009 291.838 603.009 284.027C603.009 276.216 596.803 270.028 589.011 270.028H521.017Z" fill="url(#pattern2_668_394)"/>
</g>
</g>
<g id="iPhone 15 Pro - White Flatten_2">
<g id="Apple iPhone 15 Pro Black Titanium 1_2">
<rect x="788" y="250" width="332" height="683" fill="url(#pattern3_668_394)"/>
<rect x="788" y="250" width="332" height="683" fill="url(#pattern4_668_394)"/>
</g>
<g id="Decorative_3">
<path fill-rule="evenodd" clip-rule="evenodd" d="M806.027 285.027C801.413 294.103 802.027 305.263 802.027 329.025V851.003C802.027 874.765 801.413 886.925 806.027 896.001C810.085 903.984 817.06 909.932 825.025 914C834.08 918.625 845.314 919 869.021 919H1036.01C1059.71 919 1071.95 918.625 1081 914C1088.97 909.932 1094.94 903.984 1099 896.001C1103.61 886.925 1104 874.765 1104 851.003V329.025C1104 305.263 1103.61 294.103 1099 285.027C1094.94 277.044 1088.97 270.096 1081 266.028C1071.95 261.404 1059.71 262.028 1036.01 262.028H869.021C845.314 262.028 834.08 261.404 825.025 266.028C817.06 270.096 810.085 277.044 806.027 285.027ZM919.017 270.028C911.224 270.028 905.018 276.216 905.018 284.027C905.018 291.838 911.224 299.027 919.017 299.027H987.011C994.803 299.027 1001.01 291.838 1001.01 284.027C1001.01 276.216 994.803 270.028 987.011 270.028H919.017Z" fill="url(#pattern5_668_394)"/>
</g>
</g>
<g id="iPhone 15 Pro - White Flatten_3">
<g id="Apple iPhone 15 Pro Black Titanium 1_3">
<rect x="1198" y="250" width="332" height="683" fill="url(#pattern6_668_394)"/>
<rect x="1198" y="250" width="332" height="683" fill="url(#pattern7_668_394)"/>
</g>
<g id="Decorative_4">
<path fill-rule="evenodd" clip-rule="evenodd" d="M1216.03 285.027C1211.41 294.103 1212.03 305.263 1212.03 329.025V851.003C1212.03 874.765 1211.41 886.925 1216.03 896.001C1220.09 903.984 1227.06 909.932 1235.03 914C1244.08 918.625 1255.31 919 1279.02 919H1446.01C1469.71 919 1481.95 918.625 1491 914C1498.97 909.932 1504.94 903.984 1509 896.001C1513.61 886.925 1514 874.765 1514 851.003V329.025C1514 305.263 1513.61 294.103 1509 285.027C1504.94 277.044 1498.97 270.096 1491 266.028C1481.95 261.404 1469.71 262.028 1446.01 262.028H1279.02C1255.31 262.028 1244.08 261.404 1235.03 266.028C1227.06 270.096 1220.09 277.044 1216.03 285.027ZM1329.02 270.028C1321.22 270.028 1315.02 276.216 1315.02 284.027C1315.02 291.838 1321.22 299.027 1329.02 299.027H1397.01C1404.8 299.027 1411.01 291.838 1411.01 284.027C1411.01 276.216 1404.8 270.028 1397.01 270.028H1329.02Z" fill="url(#pattern8_668_394)"/>
</g>
</g>


</g>
<defs>









<clipPath id="clip0_668_394">
<rect width="1920" height="1080" fill="white"/>
</clipPath>



</defs>
</svg>