<svg width="1920" height="1080" viewBox="0 0 1920 1080" fill="none" xmlns="http://www.w3.org/2000/svg">
<g id="Frame" clip-path="url(#clip0_668_235)">
<rect width="1920" height="1080" fill="#F3F3F3"/>
<g id="Decorative">
<path d="M836.032 1383C451.647 1383 273.497 1275.7 236.042 1136L799.032 1136L799.032 703C1281.45 721.59 1983.01 940.596 2610 665C2332.04 891.447 1586.52 1383 836.032 1383Z" fill="#FF542D"/>
<path d="M-16.9534 698C-220.429 698 -297.285 785.879 -294.948 890L-30.9531 890L-30.9531 1113C189.996 1100.61 509.037 963.582 795.032 1131C667.671 992.817 326.922 698 -16.9534 698Z" fill="#FF542D"/>
</g>
<path id="Decorative_2" d="M1848 627C1848 631.418 1851.58 635 1856 635C1860.42 635 1864 631.418 1864 627C1864 622.582 1860.42 619 1856 619C1851.58 619 1848 622.582 1848 627ZM0 627V628.5H1856V627V625.5H0V627Z" fill="#FF542D"/>















</g>
<defs>
<clipPath id="clip0_668_235">
<rect width="1920" height="1080" fill="white"/>
</clipPath>
</defs>
</svg>