<svg width="1920" height="1080" viewBox="0 0 1920 1080" fill="none" xmlns="http://www.w3.org/2000/svg">
<g id="Frame">
<rect width="1920" height="1080" fill="white"/>
<text id="Title" fill="black" stroke="black" style="white-space: pre" xml:space="preserve" font-family="Neuton" font-size="80" font-weight="300" letter-spacing="-0.02em"><tspan x="100" y="267.66">Timeline</tspan></text>
<line id="Line 8" x1="100" y1="558.5" x2="1920" y2="558.5" stroke="#003310"/>
<g id="Frame 2">
<rect x="100" y="426" width="202" height="51" rx="25.5" fill="#C7EF4E"/>
<text id="Body Medium" fill="black" style="white-space: pre" xml:space="preserve" font-family="Open Sans" font-size="24" letter-spacing="0em"><tspan x="154" y="460.811">Q1 2026</tspan></text>
</g>
<g id="Frame 3">
<rect x="538" y="426" width="202" height="51" rx="25.5" fill="#C7EF4E"/>
<text id="Body Medium_2" fill="black" style="white-space: pre" xml:space="preserve" font-family="Open Sans" font-size="24" letter-spacing="0em"><tspan x="592" y="460.811">Q2 2026</tspan></text>
</g>
<g id="Frame 4">
<rect x="976" y="426" width="202" height="51" rx="25.5" fill="#C7EF4E"/>
<text id="Body Medium_3" fill="black" style="white-space: pre" xml:space="preserve" font-family="Open Sans" font-size="24" letter-spacing="0em"><tspan x="1030" y="460.811">Q3 2026</tspan></text>
</g>
<g id="Frame 5">
<rect x="1419" y="426" width="202" height="51" rx="25.5" fill="#C7EF4E"/>
<text id="Body Medium_4" fill="black" style="white-space: pre" xml:space="preserve" font-family="Open Sans" font-size="24" letter-spacing="0em"><tspan x="1473" y="460.811">Q4 2026</tspan></text>
</g>
<circle id="Ellipse 1" cx="106" cy="559" r="6" fill="#003310"/>
<circle id="Ellipse 2" cx="544" cy="559" r="6" fill="#003310"/>
<circle id="Ellipse 3" cx="981" cy="559" r="6" fill="#003310"/>
<circle id="Ellipse 4" cx="1419" cy="559" r="6" fill="#003310"/>
<text id="Body Medium_5" fill="#7A7A7A" style="white-space: pre" xml:space="preserve" font-family="Open Sans" font-size="24" letter-spacing="0em"><tspan x="136" y="648.811">Complete user interface design </tspan><tspan x="136" y="679.811">concepts for all smart home </tspan><tspan x="136" y="710.811">appliances&#x2028;</tspan><tspan x="136" y="741.811">&#10;</tspan><tspan x="136" y="772.811">Finalize energy-saving </tspan><tspan x="136" y="803.811">algorithms for all appliances&#x2028;</tspan><tspan x="136" y="834.811">&#10;</tspan><tspan x="136" y="865.811">Secure partnerships with two </tspan><tspan x="136" y="896.811">major retail chains for product </tspan><tspan x="136" y="927.811">distribution</tspan></text>
<text id="Body Medium_6" fill="#7A7A7A" style="white-space: pre" xml:space="preserve" font-family="Open Sans" font-size="24" letter-spacing="0em"><tspan x="574" y="648.811">Conduct initial energy </tspan><tspan x="574" y="679.811">efficiency tests on prototype </tspan><tspan x="574" y="710.811">models&#x2028;</tspan><tspan x="574" y="741.811">&#10;</tspan><tspan x="574" y="772.811">Establish customer service </tspan><tspan x="574" y="803.811">ticketing system for efficient </tspan><tspan x="574" y="834.811">inquiry handling&#x2028;</tspan><tspan x="574" y="865.811">&#10;</tspan><tspan x="574" y="896.811">Begin certification process for </tspan><tspan x="574" y="927.811">Energy Star compliance</tspan></text>
<text id="Body Medium_7" fill="#7A7A7A" style="white-space: pre" xml:space="preserve" font-family="Open Sans" font-size="24" letter-spacing="0em"><tspan x="1012" y="648.811">Conduct additional energy </tspan><tspan x="1012" y="679.811">efficiency tests on refined </tspan><tspan x="1012" y="710.811">prototypes&#x2028;</tspan><tspan x="1012" y="741.811">&#10;</tspan><tspan x="1012" y="772.811">Implement customer feedback </tspan><tspan x="1012" y="803.811">system to track satisfaction </tspan><tspan x="1012" y="834.811">levels&#x2028;</tspan><tspan x="1012" y="865.811">&#10;</tspan><tspan x="1012" y="896.811">Initiate development of voice </tspan><tspan x="1012" y="927.811">control integration features.</tspan></text>
<text id="Body Medium_8" fill="#7A7A7A" style="white-space: pre" xml:space="preserve" font-family="Open Sans" font-size="24" letter-spacing="0em"><tspan x="1450" y="648.811">Launch marketing campaign </tspan><tspan x="1450" y="679.811">across multiple channels&#x2028;</tspan><tspan x="1450" y="710.811">&#10;</tspan><tspan x="1450" y="741.811">Expand partnerships to </tspan><tspan x="1450" y="772.811">include online retailers and </tspan><tspan x="1450" y="803.811">international&#x2028;</tspan><tspan x="1450" y="834.811">&#10;</tspan><tspan x="1450" y="865.811">Finalize agreements with </tspan><tspan x="1450" y="896.811">suppliers for recycled </tspan><tspan x="1450" y="927.811">materials sourcing</tspan></text>
<text id="PROJECT NAME" fill="#7A7A7A" style="white-space: pre" xml:space="preserve" font-family="Open Sans" font-size="20" font-weight="600" letter-spacing="0.02em"><tspan x="100" y="65.7588">PROJECT NAME</tspan></text>
<text id="06" fill="#7A7A7A" style="white-space: pre" xml:space="preserve" font-family="Open Sans" font-size="20" font-weight="600" letter-spacing="0.02em"><tspan x="1793.71" y="65.7588">06</tspan></text>
<line id="Line 7" x1="100" y1="99.5" x2="1817" y2="99.5" stroke="#7A7A7A"/>
</g>
</svg>
