<svg width="1920" height="1080" viewBox="0 0 1920 1080" fill="none" xmlns="http://www.w3.org/2000/svg">
<g id="Frame">
<rect width="1920" height="1080" fill="black"/>
<text id="Title" fill="white" stroke="black" style="white-space: pre" xml:space="preserve" font-family="Neuton" font-size="80" font-weight="300" letter-spacing="-0.02em"><tspan x="100" y="267.66">Issues and Mitigation Strategies</tspan></text>
<g id="Frame 49">
<g id="Frame 45">
<g id="Frame 18">
<text id="Supply Chain Disruption" fill="#C7EF4E" style="white-space: pre" xml:space="preserve" font-family="Open Sans" font-size="36" letter-spacing="-0.022em"><tspan x="102" y="379.466">Supply Chain Disruption</tspan></text>
<text id="Body Medium" fill="white" style="white-space: pre" xml:space="preserve" font-family="Open Sans" font-size="24" letter-spacing="0em"><tspan x="102" y="420.811">The reliance on multiple suppliers for components and materials </tspan><tspan x="102" y="451.811">poses a risk of supply chain disruption.</tspan></text>
</g>
<text id="Body Medium_2" fill="white" style="white-space: pre" xml:space="preserve" font-family="Open Sans" font-size="24" letter-spacing="0em"><tspan x="1148" y="420.811">Diversify sourcing options and implementing contingency </tspan><tspan x="1148" y="451.811">plans to address supply chain disruptions promptly.</tspan></text>
</g>
<g id="Frame 46">
<g id="Frame 23">
<g id="Frame 18_2">
<text id="Technical Challenges" fill="#C7EF4E" style="white-space: pre" xml:space="preserve" font-family="Open Sans" font-size="36" letter-spacing="-0.022em"><tspan x="102" y="553.466">Technical Challenges</tspan></text>
<text id="The complexity of developing smart home appliances presents technical challenges that could impact product quality." fill="white" style="white-space: pre" xml:space="preserve" font-family="Open Sans" font-size="24" letter-spacing="0em"><tspan x="102" y="594.811">The complexity of developing smart home appliances presents </tspan><tspan x="102" y="625.811">technical challenges that could impact product quality. </tspan></text>
</g>
</g>
<text id="Body Medium_3" fill="white" style="white-space: pre" xml:space="preserve" font-family="Open Sans" font-size="24" letter-spacing="0em"><tspan x="1148" y="563.811">Collaborate closely with technical experts, and allocate </tspan><tspan x="1148" y="594.811">sufficient resources for troubleshooting and problem-</tspan><tspan x="1148" y="625.811">solving.</tspan></text>
</g>
<g id="Frame 47">
<g id="Frame 24">
<g id="Frame 18_3">
<text id="Market Competition" fill="#C7EF4E" style="white-space: pre" xml:space="preserve" font-family="Open Sans" font-size="36" letter-spacing="-0.022em"><tspan x="102" y="727.466">Market Competition</tspan></text>
<text id="Body Medium_4" fill="white" style="white-space: pre" xml:space="preserve" font-family="Open Sans" font-size="24" letter-spacing="0em"><tspan x="102" y="768.811">The smart home appliance market is highly competitive, with </tspan><tspan x="102" y="799.811">established brands and new entrants vying for market share. </tspan></text>
</g>
</g>
<text id="Body Medium_5" fill="white" style="white-space: pre" xml:space="preserve" font-family="Open Sans" font-size="24" letter-spacing="0em"><tspan x="1148" y="737.811">Differentiate offerings through unique value propositions, </tspan><tspan x="1148" y="768.811">and develop robust marketing strategies to position </tspan><tspan x="1148" y="799.811">effectively.</tspan></text>
</g>
<g id="Frame 48">
<g id="Frame 25">
<g id="Frame 18_4">
<text id="Regulatory Compliance" fill="#C7EF4E" style="white-space: pre" xml:space="preserve" font-family="Open Sans" font-size="36" letter-spacing="-0.022em"><tspan x="100" y="901.466">Regulatory Compliance</tspan></text>
<text id="Body Medium_6" fill="white" style="white-space: pre" xml:space="preserve" font-family="Open Sans" font-size="24" letter-spacing="0em"><tspan x="100" y="942.811">Compliance with regulatory requirements and standards, such </tspan><tspan x="100" y="973.811">as safety regulations and environmental guidelines.</tspan></text>
</g>
</g>
<text id="Body Medium_7" fill="white" style="white-space: pre" xml:space="preserve" font-family="Open Sans" font-size="24" letter-spacing="0em"><tspan x="1150" y="942.811">Engage legal experts for guidance, and proactively address </tspan><tspan x="1150" y="973.811">compliance requirements.</tspan></text>
</g>
</g>
<path id="Arrow 1" d="M1060.06 428.061C1060.65 427.475 1060.65 426.525 1060.06 425.939L1050.51 416.393C1049.93 415.808 1048.98 415.808 1048.39 416.393C1047.81 416.979 1047.81 417.929 1048.39 418.515L1056.88 427L1048.39 435.485C1047.81 436.071 1047.81 437.021 1048.39 437.607C1048.98 438.192 1049.93 438.192 1050.51 437.607L1060.06 428.061ZM907 427V428.5H1059V427V425.5H907V427Z" fill="#C7EF4E"/>
<path id="Arrow 2" d="M1060.06 596.061C1060.65 595.475 1060.65 594.525 1060.06 593.939L1050.51 584.393C1049.93 583.808 1048.98 583.808 1048.39 584.393C1047.81 584.979 1047.81 585.929 1048.39 586.515L1056.88 595L1048.39 603.485C1047.81 604.071 1047.81 605.021 1048.39 605.607C1048.98 606.192 1049.93 606.192 1050.51 605.607L1060.06 596.061ZM907 595V596.5H1059V595V593.5H907V595Z" fill="#C7EF4E"/>
<path id="Arrow 3" d="M1060.06 770.061C1060.65 769.475 1060.65 768.525 1060.06 767.939L1050.51 758.393C1049.93 757.808 1048.98 757.808 1048.39 758.393C1047.81 758.979 1047.81 759.929 1048.39 760.515L1056.88 769L1048.39 777.485C1047.81 778.071 1047.81 779.021 1048.39 779.607C1048.98 780.192 1049.93 780.192 1050.51 779.607L1060.06 770.061ZM907 769V770.5H1059V769V767.5H907V769Z" fill="#C7EF4E"/>
<path id="Arrow 4" d="M1060.06 950.061C1060.65 949.475 1060.65 948.525 1060.06 947.939L1050.51 938.393C1049.93 937.808 1048.98 937.808 1048.39 938.393C1047.81 938.979 1047.81 939.929 1048.39 940.515L1056.88 949L1048.39 957.485C1047.81 958.071 1047.81 959.021 1048.39 959.607C1048.98 960.192 1049.93 960.192 1050.51 959.607L1060.06 950.061ZM907 949V950.5H1059V949V947.5H907V949Z" fill="#C7EF4E"/>
<text id="PROJECT NAME" fill="white" style="white-space: pre" xml:space="preserve" font-family="Open Sans" font-size="20" font-weight="600" letter-spacing="0.02em"><tspan x="100" y="65.7588">PROJECT NAME</tspan></text>
<line id="Line 7" x1="100" y1="99.5" x2="1817" y2="99.5" stroke="black"/>
<text id="PROJECT NAME_2" fill="#7A7A7A" style="white-space: pre" xml:space="preserve" font-family="Open Sans" font-size="20" font-weight="600" letter-spacing="0.02em"><tspan x="100" y="65.7588">PROJECT NAME</tspan></text>
<line id="Line 8" x1="100" y1="99.5" x2="1817" y2="99.5" stroke="#7A7A7A"/>
<text id="08" fill="#7A7A7A" style="white-space: pre" xml:space="preserve" font-family="Open Sans" font-size="20" font-weight="600" letter-spacing="0.02em"><tspan x="1793.71" y="65.7588">08</tspan></text>
</g>
</svg>
