<svg width="1920" height="1080" viewBox="0 0 1920 1080" fill="none" xmlns="http://www.w3.org/2000/svg">
<g id="Frame" clip-path="url(#clip0_668_321)">
<rect width="1920" height="1080" fill="#237267"/>
<g id="Decorative">
<path d="M809.031 1721C439.064 1721 268.091 1574.96 232.041 1387H774.031V804C1238.35 829.011 1914.53 1125.79 2518 755C2250.47 1059.66 1531.37 1721 809.031 1721Z" fill="#F3F3F3"/>
<path d="M-11.9548 798C-207.798 798 -281.199 915.914 -278.95 1056H-24.9545V1356C187.707 1339.34 495.763 1161.76 771.031 1387C648.447 1201.09 319.022 798 -11.9548 798Z" fill="#F3F3F3"/>
</g>
<text id="Quote" fill="#F3F3F3" style="white-space: pre" xml:space="preserve" font-family="Bricolage Grotesque" font-size="150" font-weight="200" letter-spacing="-0.03em"><tspan x="29.0957" y="236.5">&#x201c;EVERY ONE OF US IS, IN THE </tspan><tspan x="64" y="356.5">COSMIC PERSPECTIVE, </tspan><tspan x="64" y="476.5">PRECIOUS.</tspan></text>
<text id="Caption" fill="#F3F3F3" style="white-space: pre" xml:space="preserve" font-family="Inter" font-size="28" font-weight="600" letter-spacing="0em"><tspan x="64" y="553.182">CAPTION</tspan></text>
<text id="Caption_2" fill="#F3F3F3" style="white-space: pre" xml:space="preserve" font-family="Inter" font-size="28" font-weight="600" letter-spacing="0em"><tspan x="64" y="88.1818">CAPTION</tspan></text>
<text id="Caption_3" fill="#F3F3F3" style="white-space: pre" xml:space="preserve" font-family="Inter" font-size="28" font-weight="600" letter-spacing="0em"><tspan x="1283" y="88.1818">CAPTION</tspan></text>
</g>
<defs>
<clipPath id="clip0_668_321">
<rect width="1920" height="1080" fill="white"/>
</clipPath>
</defs>
</svg>
