<svg width="1920" height="1080" viewBox="0 0 1920 1080" fill="none" xmlns="http://www.w3.org/2000/svg">
<g id="Frame" clip-path="url(#clip0_668_327)">
<rect width="1920" height="1080" fill="#F3F3F3"/>
<g id="Decorative">
<path d="M1869 -35.855C2067.92 -35.855 2230 96.1886 2230 259.073C2230 421.957 2067.92 554 1869 554C1454.46 554 1365.53 211.202 975 34.1278C1052.25 88.221 1102 169.316 1102 259.073C1102 421.957 940.916 554 742 554C543.084 554 55.5751 553.002 -367 553C218.571 424.519 260.585 -35.8548 742 -35.855C749.041 -35.855 756.059 -36.1813 763 -35.855C762.261 -36.0185 760.74 -35.6925 760 -35.855C1182.58 -35.8571 1670.08 -35.855 1869 -35.855Z" fill="#5FA0FB"/>
</g>
<text id="Caption" fill="black" style="white-space: pre" xml:space="preserve" font-family="Inter" font-size="28" font-weight="600" letter-spacing="0em"><tspan x="64" y="88.1818">CAPTION</tspan></text>
<text id="Caption_2" fill="black" style="white-space: pre" xml:space="preserve" font-family="Inter" font-size="28" font-weight="600" letter-spacing="0em"><tspan x="1283" y="88.1818">CAPTION</tspan></text>
<text id="Quote" fill="black" style="white-space: pre" xml:space="preserve" font-family="Bricolage Grotesque" font-size="150" font-weight="200" letter-spacing="-0.03em"><tspan x="29.0957" y="702.5">&#x201c;EVERY ONE OF US IS, IN THE </tspan><tspan x="64" y="822.5">COSMIC PERSPECTIVE, </tspan><tspan x="64" y="942.5">PRECIOUS.</tspan></text>
<text id="Caption_3" fill="black" style="white-space: pre" xml:space="preserve" font-family="Inter" font-size="28" font-weight="600" letter-spacing="0em"><tspan x="64" y="1019.18">CAPTION</tspan></text>
</g>
<defs>
<clipPath id="clip0_668_327">
<rect width="1920" height="1080" fill="white"/>
</clipPath>
</defs>
</svg>
