<svg width="1920" height="1080" viewBox="0 0 1920 1080" fill="none" xmlns="http://www.w3.org/2000/svg">
<g id="Frame" clip-path="url(#clip0_668_199)">
<rect width="1920" height="1080" fill="#F3F3F3"/>
<line id="Line" y1="591.5" x2="1991" y2="591.5" stroke="#5FA0FB" stroke-width="3"/>
<path id="Line_2" d="M62 318C66.4183 318 70 314.418 70 310C70 305.582 66.4183 302 62 302C57.5817 302 54 305.582 54 310C54 314.418 57.5817 318 62 318ZM62 593L63.5 593L63.5 310L62 310L60.5 310L60.5 593L62 593Z" fill="#5FA0FB"/>
<path id="Line_3" d="M522 318C526.418 318 530 314.418 530 310C530 305.582 526.418 302 522 302C517.582 302 514 305.582 514 310C514 314.418 517.582 318 522 318ZM522 593L523.5 593L523.5 310L522 310L520.5 310L520.5 593L522 593Z" fill="#5FA0FB"/>
<path id="Line_4" d="M978 318C982.418 318 986 314.418 986 310C986 305.582 982.418 302 978 302C973.582 302 970 305.582 970 310C970 314.418 973.582 318 978 318ZM978 593L979.5 593L979.5 310L978 310L976.5 310L976.5 593L978 593Z" fill="#5FA0FB"/>
<path id="Line_5" d="M333 879C328.582 879 325 882.582 325 887C325 891.418 328.582 895 333 895C337.418 895 341 891.418 341 887C341 882.582 337.418 879 333 879ZM333 593L331.5 593L331.5 887L333 887L334.5 887L334.5 593L333 593Z" fill="#5FA0FB"/>
<path id="Line_6" d="M827 879C822.582 879 819 882.582 819 887C819 891.418 822.582 895 827 895C831.418 895 835 891.418 835 887C835 882.582 831.418 879 827 879ZM827 593L825.5 593L825.5 887L827 887L828.5 887L828.5 593L827 593Z" fill="#5FA0FB"/>
<path id="Line_7" d="M1283 879C1278.58 879 1275 882.582 1275 887C1275 891.418 1278.58 895 1283 895C1287.42 895 1291 891.418 1291 887C1291 882.582 1287.42 879 1283 879ZM1283 593L1281.5 593L1281.5 887L1283 887L1284.5 887L1284.5 593L1283 593Z" fill="#5FA0FB"/>
<text id="Subtitle" fill="black" style="white-space: pre" xml:space="preserve" font-family="Bricolage Grotesque" font-size="120" font-weight="200" letter-spacing="-0.03em"><tspan x="64" y="163.6">TIMELINE</tspan></text>
<g id="Decorative">
<path d="M1368 592.999C1696.42 505.001 1720 190 1990 190C2101.56 190 2192 280.438 2192 392C2192 503.561 2101.56 592.999 1990 592.999C1878.44 592.999 1605 593.001 1368 592.999Z" fill="#5FA0FB"/>
</g>
<g id="Text block">
<text id="Date" fill="black" style="white-space: pre" xml:space="preserve" font-family="Bricolage Grotesque" font-size="80" font-weight="200" letter-spacing="-0.03em"><tspan x="99" y="316.4">2021</tspan></text>
<text id="Caption" fill="black" style="white-space: pre" xml:space="preserve" font-family="Inter" font-size="28" font-weight="600" letter-spacing="0em"><tspan x="99" y="373.182">OCCURRENCE</tspan></text>
<text id="Body" fill="black" style="white-space: pre" xml:space="preserve" font-family="Inter" font-size="28" letter-spacing="0em"><tspan x="99" y="423.182">Brief description of the </tspan><tspan x="99" y="457.182">importance of occurrence </tspan><tspan x="99" y="491.182">or data point.  </tspan></text>
</g>
<g id="Text block_2">
<text id="Date_2" fill="black" style="white-space: pre" xml:space="preserve" font-family="Bricolage Grotesque" font-size="80" font-weight="200" letter-spacing="-0.03em"><tspan x="559" y="316.4">2023</tspan></text>
<text id="Caption_2" fill="black" style="white-space: pre" xml:space="preserve" font-family="Inter" font-size="28" font-weight="600" letter-spacing="0em"><tspan x="559" y="373.182">OCCURRENCE</tspan></text>
<text id="Body_2" fill="black" style="white-space: pre" xml:space="preserve" font-family="Inter" font-size="28" letter-spacing="0em"><tspan x="559" y="423.182">Brief description of the </tspan><tspan x="559" y="457.182">importance of occurrence </tspan><tspan x="559" y="491.182">or data point.  </tspan></text>
</g>
<g id="Text block_3">
<text id="Date_3" fill="black" style="white-space: pre" xml:space="preserve" font-family="Bricolage Grotesque" font-size="80" font-weight="200" letter-spacing="-0.03em"><tspan x="1015" y="316.4">2025</tspan></text>
<text id="Caption_3" fill="black" style="white-space: pre" xml:space="preserve" font-family="Inter" font-size="28" font-weight="600" letter-spacing="0em"><tspan x="1015" y="373.182">OCCURRENCE</tspan></text>
<text id="Body_3" fill="black" style="white-space: pre" xml:space="preserve" font-family="Inter" font-size="28" letter-spacing="0em"><tspan x="1015" y="423.182">Brief description of the </tspan><tspan x="1015" y="457.182">importance of occurrence </tspan><tspan x="1015" y="491.182">or data point.  </tspan></text>
</g>
<g id="Text block_4">
<text id="Date_4" fill="black" style="white-space: pre" xml:space="preserve" font-family="Bricolage Grotesque" font-size="80" font-weight="200" letter-spacing="-0.03em"><tspan x="1319" y="725.4">2026</tspan></text>
<text id="Caption_4" fill="black" style="white-space: pre" xml:space="preserve" font-family="Inter" font-size="28" font-weight="600" letter-spacing="0em"><tspan x="1319" y="782.182">OCCURRENCE</tspan></text>
<text id="Body_4" fill="black" style="white-space: pre" xml:space="preserve" font-family="Inter" font-size="28" letter-spacing="0em"><tspan x="1319" y="832.182">Brief description of the </tspan><tspan x="1319" y="866.182">importance of occurrence </tspan><tspan x="1319" y="900.182">or data point.  </tspan></text>
</g>
<g id="Text block_5">
<text id="Date_5" fill="black" style="white-space: pre" xml:space="preserve" font-family="Bricolage Grotesque" font-size="80" font-weight="200" letter-spacing="-0.03em"><tspan x="863" y="725.4">2024</tspan></text>
<text id="Caption_5" fill="black" style="white-space: pre" xml:space="preserve" font-family="Inter" font-size="28" font-weight="600" letter-spacing="0em"><tspan x="863" y="782.182">OCCURRENCE</tspan></text>
<text id="Body_5" fill="black" style="white-space: pre" xml:space="preserve" font-family="Inter" font-size="28" letter-spacing="0em"><tspan x="863" y="832.182">Brief description of the </tspan><tspan x="863" y="866.182">importance of occurrence </tspan><tspan x="863" y="900.182">or data point.  </tspan></text>
</g>
<g id="Text block_6">
<text id="Date_6" fill="black" style="white-space: pre" xml:space="preserve" font-family="Bricolage Grotesque" font-size="80" font-weight="200" letter-spacing="-0.03em"><tspan x="369" y="725.4">2022</tspan></text>
<text id="Caption_6" fill="black" style="white-space: pre" xml:space="preserve" font-family="Inter" font-size="28" font-weight="600" letter-spacing="0em"><tspan x="369" y="782.182">OCCURRENCE</tspan></text>
<text id="Body_6" fill="black" style="white-space: pre" xml:space="preserve" font-family="Inter" font-size="28" letter-spacing="0em"><tspan x="369" y="832.182">Brief description of the </tspan><tspan x="369" y="866.182">importance of occurrence </tspan><tspan x="369" y="900.182">or data point.  </tspan></text>
</g>
<text id="Caption_7" fill="black" style="white-space: pre" xml:space="preserve" font-family="Inter" font-size="28" font-weight="600" letter-spacing="0em"><tspan x="64" y="1020.18">CAPTION</tspan></text>
<text id="Caption_8" fill="black" style="white-space: pre" xml:space="preserve" font-family="Inter" font-size="28" font-weight="600" letter-spacing="0em"><tspan x="1283" y="1020.18">CAPTION</tspan></text>
</g>
<defs>
<clipPath id="clip0_668_199">
<rect width="1920" height="1080" fill="white"/>
</clipPath>
</defs>
</svg>
