<svg width="1920" height="1080" viewBox="0 0 1920 1080" fill="none" xmlns="http://www.w3.org/2000/svg">
<g id="Frame" clip-path="url(#clip0_668_361)">
<rect width="1920" height="1080" fill="#FF542D"/>
<text id="Quote" fill="black" style="white-space: pre" xml:space="preserve" font-family="Bricolage Grotesque" font-size="150" font-weight="200" letter-spacing="-0.03em"><tspan x="64" y="236.5">LET US KNOW!</tspan></text>
<g id="Decorative">
<path d="M-6 1172.86C-204.916 1172.86 -367 1040.81 -367 877.928C-367 715.044 -204.916 583 -6.00005 583C408.541 583 497.466 925.799 888 1102.87C810.75 1048.78 761 967.685 761 877.928C761 715.044 922.084 583 1121 583C1319.92 583 1807.42 583.998 2230 584C1644.43 712.481 1602.41 1172.85 1121 1172.86C1113.96 1172.86 1106.94 1173.18 1100 1172.86C1100.74 1173.02 1102.26 1172.69 1103 1172.86C680.425 1172.86 192.916 1172.86 -6 1172.86Z" fill="#237267"/>
</g>
<text id="Caption" fill="black" style="white-space: pre" xml:space="preserve" font-family="Inter" font-size="28" font-weight="600" letter-spacing="0em"><tspan x="64" y="88.1818">CAPTION</tspan></text>
<text id="Caption_2" fill="black" style="white-space: pre" xml:space="preserve" font-family="Inter" font-size="28" font-weight="600" letter-spacing="0em"><tspan x="1283" y="88.1818">CAPTION</tspan></text>
</g>
<defs>
<clipPath id="clip0_668_361">
<rect width="1920" height="1080" fill="white"/>
</clipPath>
</defs>
</svg>
