<svg width="1920" height="1080" viewBox="0 0 1920 1080" fill="none" xmlns="http://www.w3.org/2000/svg" xmlns:xlink="http://www.w3.org/1999/xlink">
<g id="Frame">
<rect width="1920" height="1080" fill="black"/>
<g id="iPhone 15 Pro - Black Flatten">
<rect id="Apple iPhone 15 Pro Black Titanium 1" x="744" y="97" width="431.333" height="885.333" fill="url(#pattern0_668_743)"/>
<path id="Screen **Insert Designs here**" fill-rule="evenodd" clip-rule="evenodd" d="M768.994 143.698C763 155.463 763 170.864 763 201.667V877.667C763 908.47 763 923.871 768.994 935.636C774.267 945.985 782.681 954.399 793.03 959.672C804.795 965.667 820.197 965.667 851 965.667H1068C1098.8 965.667 1114.2 965.667 1125.97 959.672C1136.32 954.399 1144.73 945.985 1150.01 935.636C1156 923.871 1156 908.47 1156 877.667V201.667C1156 170.864 1156 155.463 1150.01 143.698C1144.73 133.349 1136.32 124.935 1125.97 119.662C1114.2 113.667 1098.8 113.667 1068 113.667H851C820.197 113.667 804.795 113.667 793.03 119.662C782.681 124.935 774.267 133.349 768.994 143.698ZM915.333 125C905.208 125 897 133.208 897 143.334C897 153.459 905.208 161.667 915.333 161.667H1003.67C1013.79 161.667 1022 153.459 1022 143.334C1022 133.208 1013.79 125 1003.67 125H915.333Z" fill="url(#pattern1_668_743)"/>
</g>
<g id="iPhone 15 Pro - Black Flatten_2">
<rect id="Apple iPhone 15 Pro Black Titanium 1_2" x="1256" y="97" width="431.333" height="885.333" fill="url(#pattern2_668_743)"/>
<path id="Screen **Insert Designs here**_2" fill-rule="evenodd" clip-rule="evenodd" d="M1280.99 143.698C1275 155.463 1275 170.864 1275 201.667V877.667C1275 908.47 1275 923.871 1280.99 935.636C1286.27 945.985 1294.68 954.399 1305.03 959.672C1316.8 965.667 1332.2 965.667 1363 965.667H1580C1610.8 965.667 1626.2 965.667 1637.97 959.672C1648.32 954.399 1656.73 945.985 1662.01 935.636C1668 923.871 1668 908.47 1668 877.667V201.667C1668 170.864 1668 155.463 1662.01 143.698C1656.73 133.349 1648.32 124.935 1637.97 119.662C1626.2 113.667 1610.8 113.667 1580 113.667H1363C1332.2 113.667 1316.8 113.667 1305.03 119.662C1294.68 124.935 1286.27 133.349 1280.99 143.698ZM1427.33 125C1417.21 125 1409 133.208 1409 143.334C1409 153.459 1417.21 161.667 1427.33 161.667H1515.67C1525.79 161.667 1534 153.459 1534 143.334C1534 133.208 1525.79 125 1515.67 125H1427.33Z" fill="url(#pattern3_668_743)"/>
</g>
<g id="iPhone 15 Pro - Black Flatten_3">
<rect id="Apple iPhone 15 Pro Black Titanium 1_3" x="233" y="97" width="431.333" height="885.333" fill="url(#pattern4_668_743)"/>
<path id="Screen **Insert Designs here**_3" fill-rule="evenodd" clip-rule="evenodd" d="M257.994 143.698C252 155.463 252 170.864 252 201.667V877.667C252 908.47 252 923.871 257.994 935.636C263.267 945.985 271.681 954.399 282.03 959.672C293.795 965.667 309.197 965.667 340 965.667H557C587.803 965.667 603.204 965.667 614.969 959.672C625.318 954.399 633.732 945.985 639.005 935.636C645 923.871 645 908.47 645 877.667V201.667C645 170.864 645 155.463 639.005 143.698C633.732 133.349 625.318 124.935 614.969 119.662C603.204 113.667 587.803 113.667 557 113.667H340C309.197 113.667 293.795 113.667 282.03 119.662C271.681 124.935 263.267 133.349 257.994 143.698ZM404.333 125C394.208 125 386 133.208 386 143.334C386 153.459 394.208 161.667 404.333 161.667H492.666C502.792 161.667 511 153.459 511 143.334C511 133.208 502.792 125 492.666 125H404.333Z" fill="url(#pattern5_668_743)"/>
</g>
</g>
<defs>








</defs>
</svg>