<svg width="1920" height="1080" viewBox="0 0 1920 1080" fill="none" xmlns="http://www.w3.org/2000/svg">
<g id="Frame">
<rect width="1920" height="1080" fill="black"/>
<g id="Venn Diagram 1">
<g id="Diagram">
<ellipse id="Ellipse 701" cx="1102.5" cy="540" rx="343.5" ry="344" fill="white" stroke="black" stroke-width="4"/>
<ellipse id="Ellipse 702" cx="1448.5" cy="540" rx="343.5" ry="344" fill="black" stroke="white" stroke-width="4"/>
<g id="Intersect">
<path fill-rule="evenodd" clip-rule="evenodd" d="M1275.5 837.252C1377.48 777.596 1446 666.811 1446 540C1446 413.189 1377.48 302.404 1275.5 242.749C1173.52 302.404 1105 413.189 1105 540C1105 666.811 1173.52 777.596 1275.5 837.252Z" fill="#424242"/>
<path d="M1275.5 837.252L1274.49 838.978L1275.5 839.569L1276.51 838.978L1275.5 837.252ZM1275.5 242.749L1276.51 241.023L1275.5 240.432L1274.49 241.023L1275.5 242.749ZM1446 540H1444C1444 666.073 1375.88 776.214 1274.49 835.525L1275.5 837.252L1276.51 838.978C1379.08 778.978 1448 667.55 1448 540H1446ZM1275.5 242.749L1274.49 244.475C1375.88 303.786 1444 413.927 1444 540H1446H1448C1448 412.451 1379.08 301.022 1276.51 241.023L1275.5 242.749ZM1105 540H1107C1107 413.927 1175.12 303.786 1276.51 244.475L1275.5 242.749L1274.49 241.023C1171.92 301.022 1103 412.451 1103 540H1105ZM1275.5 837.252L1276.51 835.525C1175.12 776.214 1107 666.073 1107 540H1105H1103C1103 667.55 1171.92 778.978 1274.49 838.978L1275.5 837.252Z" fill="white"/>
</g>
</g>



</g>
<g id="Text block" clip-path="url(#clip0_668_705)">

<g id="H3 Regular">

</g>
</g>
</g>
<defs>
<clipPath id="clip0_668_705">
<rect width="560" height="164" fill="white" transform="translate(128 458)"/>
</clipPath>
</defs>
</svg>