<svg width="1920" height="1080" viewBox="0 0 1920 1080" fill="none" xmlns="http://www.w3.org/2000/svg" xmlns:xlink="http://www.w3.org/1999/xlink">
<g id="Frame">
<rect width="1920" height="1080" fill="black"/>
<g id="Text block" clip-path="url(#clip0_668_736)">

<g id="H3 Regular">

</g>
</g>
<g id="iPhone 15 Pro - Black Flatten">
<rect id="Apple iPhone 15 Pro Black Titanium 1" x="1164" y="97" width="431.333" height="885.333" fill="url(#pattern0_668_736)"/>
<path id="Screen **Insert Designs here**" fill-rule="evenodd" clip-rule="evenodd" d="M1188.99 143.698C1183 155.463 1183 170.864 1183 201.667V877.667C1183 908.47 1183 923.871 1188.99 935.636C1194.27 945.985 1202.68 954.399 1213.03 959.672C1224.8 965.667 1240.2 965.667 1271 965.667H1488C1518.8 965.667 1534.2 965.667 1545.97 959.672C1556.32 954.399 1564.73 945.985 1570.01 935.636C1576 923.871 1576 908.47 1576 877.667V201.667C1576 170.864 1576 155.463 1570.01 143.698C1564.73 133.349 1556.32 124.935 1545.97 119.662C1534.2 113.667 1518.8 113.667 1488 113.667H1271C1240.2 113.667 1224.8 113.667 1213.03 119.662C1202.68 124.935 1194.27 133.349 1188.99 143.698ZM1335.33 125C1325.21 125 1317 133.208 1317 143.334C1317 153.459 1325.21 161.667 1335.33 161.667H1423.67C1433.79 161.667 1442 153.459 1442 143.334C1442 133.208 1433.79 125 1423.67 125H1335.33Z" fill="url(#pattern1_668_736)"/>
</g>
</g>
<defs>


<clipPath id="clip0_668_736">
<rect width="680" height="205" fill="white" transform="translate(128 437)"/>
</clipPath>


</defs>
</svg>