<svg width="1920" height="1080" viewBox="0 0 1920 1080" fill="none" xmlns="http://www.w3.org/2000/svg" xmlns:xlink="http://www.w3.org/1999/xlink">
<g id="Frame">
<rect width="1920" height="1080" fill="black"/>
<g id="Macbook Air M2 Silver Flatten" clip-path="url(#clip0_668_813)">
<g id="Macbook Air M2 Silver 1">
<rect x="237" y="102" width="1445.58" height="876" fill="url(#pattern0_668_813)"/>
<rect x="237" y="102" width="1445.58" height="876" fill="url(#pattern1_668_813)"/>
</g>
<path id="Screen **Insert Designs here**" d="M399.222 131.741C390.761 131.741 383.901 138.601 383.901 147.062V881.568H1537.48V147.062C1537.48 138.601 1530.62 131.741 1522.16 131.741H1034.77C1032.78 131.741 1031.17 133.355 1031.17 135.346V148.865C1031.17 153.344 1027.54 156.976 1023.06 156.976H898.326C893.846 156.976 890.215 153.344 890.215 148.865V135.346C890.215 133.355 888.601 131.741 886.61 131.741H399.222Z" fill="url(#pattern2_668_813)"/>
</g>
</g>
<defs>



<clipPath id="clip0_668_813">
<rect width="1445.58" height="876" fill="white" transform="translate(237 102)"/>
</clipPath>



</defs>
</svg>