<svg width="1920" height="1080" viewBox="0 0 1920 1080" fill="none" xmlns="http://www.w3.org/2000/svg" xmlns:xlink="http://www.w3.org/1999/xlink">
<g id="Frame">
<rect width="1920" height="1080" fill="black"/>
<g id="iPhone 15 Pro - Black Flatten">
<rect id="Apple iPhone 15 Pro Black Titanium 1" x="744" y="95" width="431.333" height="885.333" fill="url(#pattern0_668_753)"/>
<path id="Screen **Insert Designs here**" fill-rule="evenodd" clip-rule="evenodd" d="M768.994 141.698C763 153.463 763 168.864 763 199.667V875.667C763 906.47 763 921.871 768.994 933.636C774.268 943.985 782.681 952.399 793.03 957.672C804.796 963.667 820.197 963.667 851 963.667H1068C1098.8 963.667 1114.2 963.667 1125.97 957.672C1136.32 952.399 1144.73 943.985 1150.01 933.636C1156 921.871 1156 906.47 1156 875.667V199.667C1156 168.864 1156 153.463 1150.01 141.698C1144.73 131.349 1136.32 122.935 1125.97 117.662C1114.2 111.667 1098.8 111.667 1068 111.667H851C820.197 111.667 804.796 111.667 793.03 117.662C782.681 122.935 774.268 131.349 768.994 141.698ZM915.333 123C905.208 123 897 131.208 897 141.334C897 151.459 905.208 159.667 915.333 159.667H1003.67C1013.79 159.667 1022 151.459 1022 141.334C1022 131.208 1013.79 123 1003.67 123H915.333Z" fill="url(#pattern1_668_753)"/>
</g>
<g id="Annotate">

<path id="Line 1" d="M581 217H829" stroke="black" stroke-width="2" stroke-linecap="round"/>
</g>
<g id="Annotate_2">

<path id="Line 1_2" d="M581 819H829" stroke="black" stroke-width="2" stroke-linecap="round"/>
</g>
<g id="Annotate_3">
<path id="Line 1_3" d="M1065 522H1307" stroke="black" stroke-width="2" stroke-linecap="round"/>

</g>
</g>
<defs>




</defs>
</svg>