<svg width="1920" height="1080" viewBox="0 0 1920 1080" fill="none" xmlns="http://www.w3.org/2000/svg" xmlns:xlink="http://www.w3.org/1999/xlink">
<g id="Frame">
<rect width="1920" height="1080" fill="black"/>
<g id="Text block" clip-path="url(#clip0_668_766)">

<g id="H3 Regular">

</g>
</g>
<g id="iPhone 15 Pro - Black Flatten">
<rect id="Apple iPhone 15 Pro Black Titanium 1" x="852" y="128" width="431.333" height="885.333" fill="url(#pattern0_668_766)"/>
<path id="Screen **Insert Designs here**" fill-rule="evenodd" clip-rule="evenodd" d="M876.995 174.698C871 186.463 871 201.864 871 232.667V908.667C871 939.47 871 954.871 876.995 966.636C882.268 976.985 890.681 985.399 901.03 990.672C912.796 996.667 928.197 996.667 959 996.667H1176C1206.8 996.667 1222.2 996.667 1233.97 990.672C1244.32 985.399 1252.73 976.985 1258.01 966.636C1264 954.871 1264 939.47 1264 908.667V232.667C1264 201.864 1264 186.463 1258.01 174.698C1252.73 164.349 1244.32 155.935 1233.97 150.662C1222.2 144.667 1206.8 144.667 1176 144.667H959C928.197 144.667 912.796 144.667 901.03 150.662C890.681 155.935 882.268 164.349 876.995 174.698ZM1023.33 156C1013.21 156 1005 164.208 1005 174.334C1005 184.459 1013.21 192.667 1023.33 192.667H1111.67C1121.79 192.667 1130 184.459 1130 174.334C1130 164.208 1121.79 156 1111.67 156H1023.33Z" fill="url(#pattern1_668_766)"/>
</g>
<g id="Android - Grey">
<rect id="Android L - Grey 1" x="1347" y="66" width="445" height="947" fill="url(#pattern2_668_766)"/>
<rect id="Screen **Insert Designs here**_2" x="1362" y="81" width="412" height="917" rx="30" fill="url(#pattern3_668_766)"/>
</g>
</g>
<defs>




<clipPath id="clip0_668_766">
<rect width="609" height="205" fill="white" transform="translate(128 437)"/>
</clipPath>



</defs>
</svg>