<svg width="1920" height="1080" viewBox="0 0 1920 1080" fill="none" xmlns="http://www.w3.org/2000/svg" xmlns:xlink="http://www.w3.org/1999/xlink">
<g id="Frame" clip-path="url(#clip0_668_806)">
<rect width="1920" height="1080" fill="black"/>
<g id="Text block" clip-path="url(#clip1_668_806)">


</g>
<g id="Macbook Air M2 Silver Flatten" clip-path="url(#clip2_668_806)">
<g id="Macbook Air M2 Silver 1">
<rect x="894" y="128" width="1359.77" height="824" fill="url(#pattern0_668_806)"/>
<rect x="894" y="128" width="1359.77" height="824" fill="url(#pattern1_668_806)"/>
</g>
<path id="Screen **Insert Designs here**" d="M1046.59 155.976C1038.63 155.976 1032.18 162.428 1032.18 170.387V861.292H2117.28V170.387C2117.28 162.428 2110.83 155.976 2102.87 155.976H1644.42C1642.54 155.976 1641.03 157.494 1641.03 159.367V172.083C1641.03 176.296 1637.61 179.712 1633.4 179.712H1516.07C1511.85 179.712 1508.44 176.296 1508.44 172.083V159.367C1508.44 157.494 1506.92 155.976 1505.05 155.976H1046.59Z" fill="url(#pattern2_668_806)"/>
</g>
</g>
<defs>



<clipPath id="clip0_668_806">
<rect width="1920" height="1080" fill="white"/>
</clipPath>
<clipPath id="clip1_668_806">
<rect width="680" height="205" fill="white" transform="translate(128 437)"/>
</clipPath>
<clipPath id="clip2_668_806">
<rect width="1359.77" height="824" fill="white" transform="translate(894 128)"/>
</clipPath>



</defs>
</svg>